<?xml version="1.0" standalone="no"?>
<!DOCTYPE svg PUBLIC "-//W3C//DTD SVG 20010904//EN"
 "http://www.w3.org/TR/2001/REC-SVG-20010904/DTD/svg10.dtd">
<svg version="1.0" xmlns="http://www.w3.org/2000/svg"
 width="681.000000pt" height="283.000000pt" viewBox="0 0 681.000000 283.000000"
 preserveAspectRatio="xMidYMid meet">

<g transform="translate(0.000000,283.000000) scale(0.100000,-0.100000)"
fill="#000000" stroke="none">
<path d="M615 2119 c-3 -8 -6 -97 -7 -199 l-3 -185 -35 -6 c-103 -18 -170 -92
-170 -186 0 -80 79 -166 165 -179 l45 -6 0 -194 0 -194 555 -2 555 -3 0 385 0
385 -205 0 c-113 0 -205 -1 -205 -3 0 -1 29 -61 65 -132 36 -71 65 -141 65
-155 0 -32 -26 -45 -94 -45 l-56 0 0 -150 c0 -149 0 -150 -22 -150 -39 1 -104
36 -128 69 -62 88 -13 201 100 231 l40 11 0 172 c0 186 6 225 45 277 81 109
250 139 360 64 20 -13 37 -24 38 -24 1 0 1 49 -1 110 l-3 110 -518 0 c-285 0
-532 3 -550 6 -21 5 -32 2 -36 -7z m280 -399 c10 -33 63 -70 100 -70 49 0 81
18 102 57 17 32 20 34 68 31 47 -3 50 -5 47 -28 -6 -48 -55 -113 -104 -138
-96 -49 -231 -22 -284 58 -26 40 -46 95 -36 104 3 3 27 6 53 6 39 0 49 -4 54
-20z"/>
<path d="M5557 1973 c-4 -3 -7 -204 -7 -445 l0 -438 95 0 95 0 0 445 0 445
-88 0 c-49 0 -92 -3 -95 -7z"/>
<path d="M1960 1510 l0 -420 320 0 320 0 0 75 0 75 -225 0 -225 0 0 100 0 100
195 0 195 0 0 75 0 75 -195 0 -195 0 0 90 0 90 220 0 220 0 0 80 0 80 -315 0
-315 0 0 -420z"/>
<path d="M5060 1795 l0 -75 -50 0 -50 0 0 -69 0 -70 48 -3 47 -3 5 -180 c4
-158 8 -184 26 -215 24 -42 72 -76 128 -91 73 -20 227 4 225 35 0 6 -10 37
-22 68 -18 46 -25 55 -37 48 -29 -19 -98 -12 -120 12 -18 20 -20 35 -20 175
l0 153 80 0 80 0 0 70 0 70 -80 0 -80 0 0 75 0 75 -90 0 -90 0 0 -75z"/>
<path d="M3623 1722 c-147 -52 -223 -159 -223 -312 0 -161 90 -275 250 -316
126 -32 294 0 359 70 l21 22 -49 48 -48 47 -48 -25 c-66 -36 -176 -37 -226 -3
-32 21 -79 80 -79 98 0 5 111 9 246 9 l247 0 -5 78 c-7 129 -67 220 -176 270
-74 34 -196 40 -269 14z m191 -136 c34 -14 68 -54 80 -93 l7 -23 -161 0 -161
0 6 23 c25 87 136 132 229 93z"/>
<path d="M4490 1724 c-25 -9 -60 -27 -77 -41 l-33 -24 0 35 0 36 -90 0 -90 0
0 -320 0 -320 95 0 95 0 0 190 c0 169 2 195 20 229 46 91 200 97 247 8 14 -26
18 -66 21 -229 l4 -198 89 0 89 0 0 203 c0 289 -23 360 -134 416 -62 31 -171
38 -236 15z"/>
<path d="M2657 1714 c3 -9 63 -152 133 -317 l126 -302 98 0 99 0 127 301 c69
165 129 308 133 317 6 15 -3 17 -81 17 l-88 0 -89 -215 c-50 -118 -92 -215
-96 -215 -3 0 -44 96 -91 213 l-86 212 -96 3 c-85 2 -95 1 -89 -14z"/>
<path d="M5856 1648 c19 -46 82 -192 140 -324 57 -133 104 -244 104 -247 0 -4
-14 -22 -31 -42 -27 -31 -37 -35 -78 -35 -25 0 -59 7 -75 15 -15 8 -30 15 -32
15 -4 0 -64 -117 -64 -125 0 -3 24 -17 53 -30 38 -18 69 -25 116 -25 93 0 139
17 192 72 42 43 62 82 204 415 86 202 159 374 162 381 4 9 -16 12 -83 12 l-89
0 -89 -215 c-49 -119 -93 -212 -97 -208 -4 4 -46 100 -92 213 l-85 205 -96 3
-96 3 36 -83z"/>
</g>
</svg>
